<svg width="180" height="19" viewBox="0 0 180 19" fill="none" xmlns="http://www.w3.org/2000/svg">
<path d="M0.429688 18V1.03125H3.94531V8.55469H4.17969L10.3438 1.03125H14.5859L8.25781 8.625L14.6562 18H10.4375L5.72656 10.9922L3.94531 13.1484V18H0.429688Z" fill="#1E1D1D"/>
<path d="M19.8594 1.03125V18H16.3438V1.03125H19.8594Z" fill="#1E1D1D"/>
<path d="M22.7188 1.03125H27.0781L31.7891 12.5391H31.9766L36.6875 1.03125H41.0469V18H37.625V6.89062H37.4844L33.0547 17.9297H30.7109L26.2812 6.84375H26.1406V18H22.7188V1.03125Z" fill="#1E1D1D"/>
<path d="M58.6484 5.88281C58.5078 4.54688 57.4297 3.75 55.7188 3.75C53.9375 3.75 52.9531 4.57031 52.9297 5.69531C52.9062 6.91406 54.1953 7.47656 55.6484 7.80469L57.1719 8.17969C60.0781 8.83594 62.2578 10.3125 62.2578 13.1484C62.2578 16.2656 59.8203 18.2344 55.6953 18.2344C51.5938 18.2344 48.9688 16.3359 48.875 12.7031H52.2969C52.4141 14.4141 53.7734 15.2812 55.6484 15.2812C57.5 15.2812 58.6953 14.4141 58.6953 13.1484C58.6953 12 57.6406 11.4609 55.7891 10.9922L53.9375 10.5469C51.0781 9.84375 49.3203 8.41406 49.3203 5.92969C49.3203 2.83594 52.0391 0.796875 55.7422 0.796875C59.4922 0.796875 61.9766 2.88281 62.0234 5.88281H58.6484Z" fill="#1E1D1D"/>
<path d="M64.5547 18V1.03125H75.9453V3.9375H68.0703V8.0625H75.3594V10.9688H68.0703V15.0938H75.9688V18H64.5547Z" fill="#1E1D1D"/>
<path d="M94.2266 9.51562C94.2266 15.0469 90.7812 18.2344 86.3047 18.2344C81.7812 18.2344 78.3594 15.0234 78.3594 9.51562C78.3594 3.98438 81.7812 0.796875 86.3047 0.796875C90.7812 0.796875 94.2266 3.98438 94.2266 9.51562ZM90.6406 9.51562C90.6406 5.88281 88.9297 3.91406 86.3047 3.91406C83.6797 3.91406 81.9453 5.88281 81.9453 9.51562C81.9453 13.1484 83.6797 15.1172 86.3047 15.1172C88.9297 15.1172 90.6406 13.1484 90.6406 9.51562Z" fill="#1E1D1D"/>
<path d="M110.914 1.03125V18H107.867L100.414 7.21875H100.273V18H96.7578V1.03125H99.8516L107.258 11.8125H107.422V1.03125H110.914Z" fill="#1E1D1D"/>
<path d="M125.047 6.49219C124.578 4.89844 123.289 3.91406 121.438 3.91406C118.812 3.91406 117.031 5.92969 117.031 9.49219C117.031 13.0781 118.766 15.1172 121.461 15.1172C123.887 15.1172 125.328 13.7461 125.375 11.6016H121.695V8.95312H128.773V11.0625C128.773 15.5156 125.727 18.2344 121.438 18.2344C116.68 18.2344 113.445 14.9062 113.445 9.53906C113.445 4.03125 116.891 0.796875 121.367 0.796875C125.188 0.796875 128.141 3.14062 128.609 6.49219H125.047Z" fill="#1E1D1D"/>
<path d="M131.352 18V1.03125H134.867V8.0625H142.227V1.03125H145.766V18H142.227V10.9688H134.867V18H131.352Z" fill="#1E1D1D"/>
<path d="M159.125 1.03125H162.664V12.0469C162.664 15.7734 159.852 18.2344 155.633 18.2344C151.414 18.2344 148.625 15.7734 148.625 12.0469V1.03125H152.141V11.7656C152.141 13.7109 153.523 15.1406 155.633 15.1406C157.766 15.1406 159.125 13.7109 159.125 11.7656V1.03125Z" fill="#1E1D1D"/>
<path d="M179.68 1.03125V18H176.633L169.18 7.21875H169.039V18H165.523V1.03125H168.617L176.023 11.8125H176.188V1.03125H179.68Z" fill="#1E1D1D"/>
</svg>
